<svg width="800" height="800" viewBox="0 0 800 800" fill="none" xmlns="http://www.w3.org/2000/svg">
<g clip-path="url(#clip0_2361_107)">
<path d="M743.155 461.716L678.458 324.581C678.628 320.48 678.775 316.353 678.775 312.228C678.775 139.792 538.98 -0.00292969 366.544 -0.00292969C194.108 -0.00292969 54.2876 139.792 54.2876 312.228C54.2876 409.202 98.5017 495.822 167.838 553.097V663.474C167.838 674.241 174.283 683.981 184.17 688.156L442.789 797.874C451.041 801.389 460.538 800.511 468.058 795.555C475.553 790.574 480.07 782.175 480.07 773.191V679.685C480.07 664.866 492.083 652.853 506.902 652.853H639.324C654.142 652.853 666.13 640.817 666.13 626.022V545.383C666.13 535.128 672.014 525.753 681.242 521.261L730.608 497.286C743.814 490.866 749.405 474.997 743.155 461.716ZM366.544 524.558C249.283 524.558 154.214 429.514 154.214 312.228C154.214 194.967 249.283 99.9236 366.544 99.9236C483.805 99.9236 578.849 194.967 578.849 312.228C578.849 429.514 483.805 524.558 366.544 524.558Z" fill="#252756"/>
<path d="M516.3 338.473C522.038 338.034 526.432 333.273 526.432 327.511V301.314C526.432 295.552 522.036 290.792 516.3 290.328L481.56 287.619C479.386 287.472 477.458 286.081 476.628 284.03L465.178 256.442C464.349 254.416 464.714 252.072 466.13 250.387L488.786 223.898C492.522 219.553 492.277 213.058 488.2 209.006L469.671 190.452C465.594 186.398 459.099 186.155 454.753 189.866L428.264 212.522C426.603 213.938 424.236 214.328 422.235 213.498L394.647 202.048C392.596 201.219 391.205 199.289 391.033 197.092L388.347 162.375C387.883 156.612 383.099 152.219 377.361 152.219H351.141C345.403 152.219 340.619 156.614 340.178 162.375L337.492 197.092C337.322 199.289 335.905 201.219 333.855 202.048L306.291 213.498C304.239 214.328 301.921 213.938 300.236 212.522L273.747 189.866C269.377 186.155 262.883 186.398 258.83 190.452L240.3 209.006C236.247 213.059 235.978 219.553 239.714 223.898L262.371 250.387C263.786 252.072 264.177 254.416 263.322 256.442L251.896 284.03C251.066 286.081 249.113 287.472 246.914 287.619L212.174 290.328C206.461 290.792 202.066 295.553 202.066 301.314V327.511C202.066 333.273 206.461 338.033 212.174 338.473L246.914 341.183C249.111 341.353 251.064 342.745 251.896 344.797L263.322 372.384C264.177 374.386 263.786 376.755 262.371 378.414L239.714 404.928C235.978 409.273 236.247 415.769 240.3 419.82L258.83 438.35C262.883 442.427 269.377 442.672 273.747 438.961L300.236 416.28C301.921 414.887 304.241 414.497 306.291 415.352L333.855 426.778C335.907 427.608 337.322 429.537 337.492 431.709L340.178 466.475C340.617 472.187 345.403 476.606 351.141 476.606H377.361C383.099 476.606 387.883 472.187 388.347 466.475L391.033 431.709C391.203 429.536 392.596 427.608 394.647 426.778L422.235 415.352C424.236 414.497 426.605 414.887 428.264 416.28L454.753 438.961C459.099 442.672 465.594 442.428 469.671 438.35L488.2 419.82C492.277 415.767 492.522 409.273 488.786 404.928L466.13 378.414C464.714 376.753 464.347 374.386 465.178 372.384L476.628 344.797C477.458 342.745 479.388 341.355 481.56 341.183L516.3 338.473ZM364.249 369.236C349.6 369.236 335.83 363.523 325.478 353.172C315.127 342.82 309.438 329.05 309.438 314.427C309.438 299.778 315.127 286.008 325.478 275.656C335.83 265.28 349.6 259.592 364.249 259.592C378.897 259.592 392.667 265.281 403.019 275.656C413.371 286.008 419.06 299.778 419.06 314.427C419.06 329.05 413.371 342.82 403.019 353.172C392.667 363.523 378.897 369.236 364.249 369.236Z" fill="#252756"/>
</g>
<defs>
<clipPath id="clip0_2361_107">
<rect width="800" height="800" fill="white"/>
</clipPath>
</defs>
</svg>
