<svg width="800" height="800" viewBox="0 0 800 800" fill="none" xmlns="http://www.w3.org/2000/svg">
<g clip-path="url(#clip0_2361_131)">
<path d="M799.916 426.626C801.891 384.187 769.039 348.117 726.56 346.15C705.807 345.159 686.629 352.559 672.18 365.248C656.574 348.733 634.839 337.919 610.307 336.794C580.046 335.403 552.629 349.026 535.088 371.003C571.974 405.547 594.66 454.908 593.341 509.326C593.3 510.772 593.093 512.123 593.013 513.529C611.082 545.758 621.214 582.978 620.263 622.622C619.608 650.167 613.597 676.306 603.513 700.262C648.094 702.229 685.924 667.739 687.985 623.115C688.066 621.75 687.985 620.4 687.985 619.034C725.529 607.176 753.607 573.02 755.494 531.354C756.116 518.679 754.136 506.448 750.227 495.125C778.06 484.594 798.436 458.32 799.916 426.626Z" fill="#252756"/>
<path d="M202.361 500.025C203.653 445.847 228.4 397.892 266.497 365.169C250.403 343.258 224.753 328.737 195.463 327.987C170.93 327.412 148.472 336.633 131.782 352.078C118.238 338.359 99.6269 329.673 78.8613 329.192C36.3332 328.148 1.03318 361.822 0.0238004 404.354C-0.740262 436.048 17.7504 463.633 44.7925 476.147C40.0801 487.136 37.2832 499.194 36.9691 511.881C35.9847 553.586 61.5691 589.644 98.2066 604.137C98.1066 605.489 97.9394 606.814 97.9004 608.165C96.8488 652.922 132.21 690.009 176.919 691.078C179.08 691.119 181.241 691.039 183.363 690.919C174.243 666.292 169.385 639.698 170.046 611.872C171.008 572.23 182.886 535.515 202.482 504.184C202.482 502.783 202.343 501.43 202.361 500.025Z" fill="#252756"/>
<path d="M330.633 582.109C329.75 618.218 358.566 638.093 394.649 638.963C430.774 639.834 460.458 621.337 461.322 585.24C462.185 549.143 433.41 529.254 397.286 528.384C361.202 527.529 331.477 546.053 330.633 582.109Z" fill="#252756"/>
<path d="M493.596 633.409C453.705 648.265 433.282 675.434 393.805 674.498C354.329 673.589 335.224 645.428 296.116 628.712C257.007 611.956 226.872 649.578 247.397 682.89C272.137 722.989 303.63 770.167 388.512 772.175C473.419 774.236 513.021 728.704 539.657 689.85C561.769 657.567 533.441 618.553 493.596 633.409ZM503.146 686.718C501.54 688.578 463.047 732.451 394.441 730.845C325.862 729.2 289.491 683.506 287.985 681.565C284.96 677.709 285.635 672.103 289.53 669.09C293.379 666.093 298.979 666.748 302.004 670.67C302.313 671.031 334.976 711.625 394.876 713.07C454.776 714.462 489.354 675.476 489.682 675.114C492.894 671.367 498.535 670.992 502.196 674.204C505.904 677.376 506.312 682.97 503.146 686.718Z" fill="#252756"/>
<path d="M288.977 555.435C295.234 555.596 300.916 535.346 302.829 508.217C329.998 507.642 350.496 502.915 350.644 496.653C350.791 490.443 330.555 484.713 303.444 482.812C302.829 455.643 298.091 435.138 291.835 434.977C285.598 434.818 279.896 455.107 277.982 482.196C250.813 482.771 230.335 487.549 230.188 493.76C230.049 500.023 250.277 505.699 277.366 507.64C278.002 534.81 282.719 555.274 288.977 555.435Z" fill="#252756"/>
<path d="M518.665 487.926C518.049 460.757 513.312 440.252 507.094 440.132C500.838 439.959 495.116 460.221 493.222 487.351C466.054 487.926 445.557 492.69 445.429 498.913C445.268 505.163 465.518 510.851 492.607 512.738C493.222 539.909 497.96 560.413 504.216 560.585C510.435 560.705 516.155 540.496 518.088 513.366C545.218 512.738 565.715 508.054 565.883 501.79C566.004 495.541 545.755 489.813 518.665 487.926Z" fill="#252756"/>
<path d="M513.687 338.4L477.991 151.84C478.855 151.881 479.598 152.081 480.46 152.081C514.798 152.081 542.623 124.256 542.623 89.9262C542.623 55.5949 514.798 27.7559 480.46 27.7559C446.132 27.7559 418.279 55.5949 418.279 89.9262C418.279 108.154 426.29 124.376 438.804 135.779L291.754 325.684L513.687 338.4Z" fill="#252756"/>
</g>
<defs>
<clipPath id="clip0_2361_131">
<rect width="800" height="800" fill="white"/>
</clipPath>
</defs>
</svg>
