<svg width="800" height="800" viewBox="0 0 800 800" fill="none" xmlns="http://www.w3.org/2000/svg">
<path fill-rule="evenodd" clip-rule="evenodd" d="M733.333 640.194V400C733.333 215.905 584.093 66.667 400 66.667C215.905 66.667 66.6667 215.905 66.6667 400V640.194C66.6667 682.987 111.699 710.817 149.973 691.68C180.909 676.214 217.76 678.507 246.538 697.694C278.912 719.274 321.088 719.274 353.463 697.694L365.217 689.857C386.28 675.814 413.72 675.814 434.783 689.857L446.537 697.694C478.913 719.274 521.087 719.274 553.463 697.694C582.24 678.507 619.09 676.214 650.027 691.68C688.3 710.817 733.333 682.987 733.333 640.194ZM533.333 350C533.333 377.614 518.41 400 500 400C481.59 400 466.667 377.614 466.667 350C466.667 322.386 481.59 300 500 300C518.41 300 533.333 322.386 533.333 350ZM300 400C318.409 400 333.333 377.614 333.333 350C333.333 322.386 318.409 300 300 300C281.591 300 266.667 322.386 266.667 350C266.667 377.614 281.591 400 300 400Z" fill="#252756"/>
</svg>
