<svg width="667" height="567" viewBox="0 0 667 567" fill="none" xmlns="http://www.w3.org/2000/svg">
<path d="M633.333 300.005L555.787 127.68C540.417 93.5217 532.73 76.4424 520.657 63.9234C509.987 52.857 496.907 44.4004 482.437 39.21C466.067 33.3384 447.337 33.3384 409.88 33.3384H256.787C219.33 33.3384 200.601 33.3384 184.23 39.21C169.759 44.4004 156.68 52.857 146.009 63.9234C133.937 76.4424 126.251 93.5217 110.88 127.68L33.3335 300.005V426.672C33.3335 464.008 33.3335 482.678 40.5998 496.938C46.9912 509.482 57.1898 519.682 69.7342 526.072C83.9948 533.338 102.663 533.338 140 533.338H526.667C564.003 533.338 582.674 533.338 596.934 526.072C609.477 519.682 619.677 509.482 626.067 496.938C633.333 482.678 633.333 464.008 633.333 426.672V300.005ZM33.3335 300.005H155.817C172.123 300.005 180.276 300.005 187.949 301.848C194.751 303.482 201.254 306.175 207.219 309.828C213.947 313.952 219.712 319.718 231.242 331.248L235.425 335.428C246.955 346.958 252.72 352.725 259.448 356.848C265.412 360.502 271.917 363.195 278.717 364.828C286.39 366.672 294.543 366.672 310.85 366.672H355.817C372.123 366.672 380.277 366.672 387.95 364.828C394.75 363.195 401.253 360.502 407.22 356.848C413.947 352.725 419.713 346.958 431.243 335.428L435.423 331.248C446.953 319.718 452.72 313.952 459.447 309.828C465.413 306.175 471.917 303.482 478.717 301.848C486.39 300.005 494.543 300.005 510.85 300.005H633.333" stroke="white" stroke-width="66.6667" stroke-linecap="round" stroke-linejoin="round"/>
</svg>
