<svg width="800" height="800" viewBox="0 0 800 800" fill="none" xmlns="http://www.w3.org/2000/svg">
<g clip-path="url(#clip0_2361_119)">
<path d="M491.561 10.1349L426.271 70.2469C411.405 83.8205 388.782 83.8205 373.916 70.2469L307.987 10.7812C287.949 -7.31699 256.277 -0.206969 245.935 24.3549L192.287 153.628H607.254L553.605 23.7085C543.27 -0.846871 511.592 -7.95689 491.561 10.1349Z" fill="#252756"/>
<path d="M69.4777 271.912C50.7331 280.962 57.8431 308.755 77.8804 308.755H399.77H721.021C741.698 308.755 748.161 280.962 730.063 271.912L651.207 231.191H148.334L69.4777 271.912Z" fill="#252756"/>
<path d="M3.54863 582.815L37.806 768.975C41.0378 787.713 57.197 800 75.9416 800H399.771H724.253C742.991 800 759.15 787.073 762.382 768.975L796.639 582.815C799.871 564.717 790.175 546.618 772.73 539.515C689.989 507.197 603.382 489.745 534.861 479.396C517.416 476.817 500.604 486.513 494.14 502.019L428.857 650.037C417.223 675.892 380.38 675.892 369.385 649.391L306.041 502.666C298.931 486.506 282.126 476.811 264.674 479.39C196.159 489.085 109.546 507.19 27.4577 539.508C10.0123 545.979 -0.329561 564.077 3.54863 582.815Z" fill="#252756"/>
</g>
<defs>
<clipPath id="clip0_2361_119">
<rect width="800" height="800" fill="white"/>
</clipPath>
</defs>
</svg>
