<svg width="782" height="800" viewBox="0 0 782 800" fill="none" xmlns="http://www.w3.org/2000/svg">
<path d="M781.323 252.14C781.323 164.981 747.082 74.7082 681.712 9.33852C669.261 -3.11284 650.584 -3.11284 638.132 9.33852L239.689 404.669L31.1284 613.23C9.33852 635.019 0 659.922 0 691.051C0 719.066 12.4514 747.082 31.1284 768.872C52.9183 790.662 77.821 800 108.949 800C136.965 800 164.981 787.549 186.77 768.872L373.541 582.101L460.7 669.261C466.926 675.486 476.265 678.599 482.49 678.599C488.716 678.599 498.054 675.486 504.28 669.261L681.712 491.829C697.276 476.265 709.728 460.7 719.066 445.136V594.553C719.066 613.23 731.517 625.681 750.195 625.681C768.872 625.681 781.323 613.23 781.323 594.553V252.14ZM638.132 448.249L482.49 603.891L395.331 516.732L308.171 429.572L656.809 74.7082C747.082 183.658 737.743 345.525 638.132 448.249Z" fill="#252756"/>
<path d="M771.988 666.154C762.649 656.816 750.198 653.703 737.746 659.928C734.634 659.928 731.521 663.041 728.408 666.154C725.295 669.267 722.182 672.38 722.182 675.493C719.069 678.605 719.069 684.831 719.069 687.944C719.069 691.057 719.069 697.282 722.182 700.395C725.295 703.508 725.295 706.621 728.408 709.734C734.634 715.96 740.859 719.072 750.198 719.072C753.311 719.072 759.536 719.072 762.649 715.96C765.762 712.847 768.875 712.847 771.988 709.734C778.213 703.508 781.326 697.283 781.326 687.944C781.326 684.831 781.326 678.605 778.213 675.493C778.213 672.38 775.1 669.267 771.988 666.154Z" fill="#252756"/>
</svg>
