<svg width="281" height="486" viewBox="0 0 281 486" fill="none" xmlns="http://www.w3.org/2000/svg">
<path d="M74.216 256.96L24.3348 274.385V454.947L202.165 466.393L190.89 278.826L158.433 256.96L140.838 250.811H97.9608L74.216 256.96Z" fill="#B7EBF4"/>
<path d="M127.685 50.2607C175.046 50.261 213.439 89.2663 213.439 137.382C213.439 176.024 193.193 195.238 160.687 201.306C156.745 219.826 152.494 231.635 139.984 250.811H98.8148C115.527 240.132 124.379 224.423 123.187 203.125C90.3524 201.012 60.2309 189.538 47.8646 164.501C44.7409 166.764 40.703 168.131 36.2924 168.131C26.3863 168.131 18.3558 161.247 18.3558 152.756C18.356 144.265 26.3864 137.382 36.2924 137.382C38.2636 137.382 40.1607 137.655 41.9349 138.158C41.9323 137.9 41.9301 137.641 41.9301 137.382C41.9301 89.2662 80.324 50.2607 127.685 50.2607Z" fill="#E9D4B8"/>
<path d="M117.33 75.6222C133.834 97.46 44.1506 139.261 44.1506 139.261C44.1506 139.261 22.6265 114.15 27.7513 103.602C32.8761 93.0542 17.2672 98.6121 39.1648 67.7742C61.0624 36.9363 117.33 30.0698 117.33 30.0698C117.33 30.0698 147.404 35.7357 165.232 30.0698C182.44 24.601 203.277 3.79609 203.277 3.79609C203.277 3.79609 209.675 -4.74511 220.224 3.79609C230.773 12.3373 230.773 23.9279 230.773 23.9279L203.277 56.3434C203.277 56.3434 251.98 55.082 252.216 75.6222C252.324 84.9783 249.35 91.2406 242.359 97.46C230.956 107.605 203.277 97.46 203.277 97.46C203.277 97.46 100.826 53.7844 117.33 75.6222Z" fill="#4E7D9A"/>
<path d="M126.914 300.518C117.212 286.76 111.996 278.665 103.118 263.544C119.829 256.577 129.172 254.178 145.659 260.744C143.773 278.21 138.582 286.532 126.914 300.518Z" fill="#252756"/>
<path d="M104.964 370.901L127.684 297.275L141.692 377.905L118.118 461.951V441.794L104.964 370.901Z" fill="#252756"/>
<path d="M74.3868 256.619L121.706 447.602L159.287 256.619C182.945 260.14 212.654 275.202 238.209 307.012C286.804 405.283 284.503 450.335 276.645 470.834C268.787 491.333 -15.8093 491.846 -40.4082 461.61C-65.0071 431.374 -67.7404 351.769 -22.984 310.941C21.7724 270.114 24.4107 272.392 74.3868 256.619Z" fill="#1A3465"/>
<ellipse cx="180.641" cy="123.716" rx="8.19964" ry="14.0077" fill="#373333"/>
<ellipse cx="107.869" cy="137.724" rx="8.19964" ry="14.0077" fill="#373333"/>
<path d="M158.946 152.585L148.184 135.332V166.081L158.946 152.585Z" fill="#E2BA84"/>
<path d="M91.811 124.057C97.3823 125.862 101.683 124.416 114.018 112.1" stroke="#4E7D9A" stroke-width="4.09982" stroke-linecap="round"/>
<path d="M192.76 100.033C186.087 104.609 179.892 105.49 159.116 100.389" stroke="#4E7D9A" stroke-width="4.09982" stroke-linecap="round"/>
</svg>
