<svg width="800" height="800" viewBox="0 0 800 800" fill="none" xmlns="http://www.w3.org/2000/svg">
<path d="M175.003 239.999C175.003 110.224 290.208 5.94638 427.129 21.5508H427.132C526.022 32.8052 607.683 110.13 622.357 205.828L622.358 205.832C635.076 288.682 600.582 364.293 541.095 411.215L513.044 433.341L546.57 445.687C662.724 488.457 750.559 582.39 778.698 709.754L778.7 709.765C786.449 744.739 757.53 779.999 717.829 779.999H82.1592C42.5138 779.999 13.5725 744.75 21.2891 709.759C49.4686 582.388 137.267 488.457 253.457 445.688L287.004 433.339L258.928 411.211C207.668 370.81 175.003 309.106 175.003 239.999ZM399.994 459.999C257.931 459.999 133.639 531.619 80.6045 658.78L80.5996 658.791L80.5947 658.803C63.7106 699.425 97.0229 739.999 137.527 739.999H662.502C703.006 739.999 736.318 699.425 719.434 658.803L719.43 658.791L719.425 658.78L718.8 657.293C665.418 531.06 541.542 459.999 399.994 459.999ZM399.994 59.999C299.308 59.999 216.667 140.324 216.667 239.999C216.667 339.674 299.308 419.999 399.994 419.999C500.725 419.999 583.321 339.671 583.321 239.999C583.321 140.327 500.725 59.9991 399.994 59.999Z" fill="#252756" stroke="#252756" stroke-width="40"/>
</svg>
