<svg width="800" height="800" viewBox="0 0 800 800" fill="none" xmlns="http://www.w3.org/2000/svg">
<path d="M587.275 149.342C628.509 149.342 661.936 115.916 661.936 74.6814C661.936 33.4473 628.509 0.0205078 587.275 0.0205078C546.041 0.0205078 512.614 33.4473 512.614 74.6814C512.614 115.916 546.041 149.342 587.275 149.342Z" fill="#252756"/>
<path d="M699.055 344.54C686.149 342.493 584.741 326.409 572.705 324.499L514.17 196.6L586.679 285.465L601.325 242.71C609.319 219.37 596.879 193.967 573.539 185.973L477.543 153.091C454.255 145.114 428.916 157.485 420.863 180.726L298.24 199.553C285.997 201.435 275.51 209.315 270.3 220.552L208.145 354.601C199.56 373.113 207.599 395.114 226.14 403.709C244.671 412.302 266.656 404.245 275.248 385.715L329.062 269.655L393.802 259.714L335.642 429.51L270.571 538.911L134.306 464.841C113.111 453.315 86.583 461.158 75.0623 482.357C63.5382 503.554 71.3814 530.079 92.5805 541.601L265.769 635.746C286.407 646.964 312.189 639.854 324.179 619.698L378.529 528.322L564.672 572.094V756.314C564.672 780.44 584.232 800 608.358 800C632.484 800 652.044 780.44 652.044 756.314V537.491C652.044 517.216 638.095 499.606 618.358 494.964L522.63 472.453L537.268 429.717L535.97 429.512C503.464 424.356 482.489 398.198 478.892 380.315L449.06 232.076L513.699 373.31C518.838 384.535 529.342 392.512 541.535 394.446C552.573 396.196 661.54 413.48 687.47 417.594C707.435 420.762 726.571 407.156 729.79 386.86C732.988 366.688 719.23 347.74 699.055 344.54Z" fill="#252756"/>
</svg>
